<svg width="1667" height="212" viewBox="0 0 1667 212" fill="none" xmlns="http://www.w3.org/2000/svg">
<path d="M13.475 174V44.5H67.375C93.45 44.5 109.2 58.15 109.2 80.375C109.2 94.2 102.9 104.35 91.175 109.425C103.95 113.625 110.775 123.6 110.775 138.3C110.775 161.225 95.375 174 67.375 174H13.475ZM64.4 69.35H41.825V97.525H64.4C74.55 97.525 80.15 92.45 80.15 83.175C80.15 74.075 74.725 69.35 64.4 69.35ZM65.8 121.325H41.825V149.15H65.8C76.3 149.15 81.725 144.425 81.725 134.8C81.725 126.05 76.125 121.325 65.8 121.325ZM145.823 174H116.248L162.448 44.5H190.098L236.123 174H206.023L196.923 146.7H155.098L145.823 174ZM172.598 95.25L163.323 122.9H188.873L179.598 95.25C178.198 90.875 176.623 85.8 176.098 82.65C175.573 85.625 174.173 90.525 172.598 95.25ZM269.206 124.825L225.456 44.5H257.131L278.831 86.5C280.931 90.525 282.331 93.675 283.731 97C285.306 93.85 286.706 90.525 288.806 86.325L310.506 44.5H341.306L297.556 124.825V174H269.206V124.825ZM393.218 174L344.743 44.5H375.018L399.518 109.95C402.493 118 404.943 126.05 407.743 137.25C411.068 124.825 413.518 117.65 416.318 109.95L440.468 44.5H470.043L422.443 174H393.218ZM513.676 44.5V174H485.326V44.5H513.676ZM568.697 174H540.697V44.5H568.697L623.297 126.925V44.5H651.297V174H623.297L568.697 91.75V174ZM760.52 174H678.27V44.5H760.52V70.75H706.62V96.125H754.395V120.975H706.62V147.75H760.52V174Z" fill="white"/>
<path d="M13.475 174V44.5H67.375C93.45 44.5 109.2 58.15 109.2 80.375C109.2 94.2 102.9 104.35 91.175 109.425C103.95 113.625 110.775 123.6 110.775 138.3C110.775 161.225 95.375 174 67.375 174H13.475ZM64.4 69.35H41.825V97.525H64.4C74.55 97.525 80.15 92.45 80.15 83.175C80.15 74.075 74.725 69.35 64.4 69.35ZM65.8 121.325H41.825V149.15H65.8C76.3 149.15 81.725 144.425 81.725 134.8C81.725 126.05 76.125 121.325 65.8 121.325ZM145.823 174H116.248L162.448 44.5H190.098L236.123 174H206.023L196.923 146.7H155.098L145.823 174ZM172.598 95.25L163.323 122.9H188.873L179.598 95.25C178.198 90.875 176.623 85.8 176.098 82.65C175.573 85.625 174.173 90.525 172.598 95.25ZM269.206 124.825L225.456 44.5H257.131L278.831 86.5C280.931 90.525 282.331 93.675 283.731 97C285.306 93.85 286.706 90.525 288.806 86.325L310.506 44.5H341.306L297.556 124.825V174H269.206V124.825ZM393.218 174L344.743 44.5H375.018L399.518 109.95C402.493 118 404.943 126.05 407.743 137.25C411.068 124.825 413.518 117.65 416.318 109.95L440.468 44.5H470.043L422.443 174H393.218ZM513.676 44.5V174H485.326V44.5H513.676ZM568.697 174H540.697V44.5H568.697L623.297 126.925V44.5H651.297V174H623.297L568.697 91.75V174ZM760.52 174H678.27V44.5H760.52V70.75H706.62V96.125H754.395V120.975H706.62V147.75H760.52V174Z" fill="white"/>
<path d="M1029.23 174H978.475V44.5H1027.48C1065.45 44.5 1091.88 71.1 1091.88 109.6C1091.88 147.4 1066.15 174 1029.23 174ZM1024.68 70.75H1006.83V147.75H1026.43C1048.83 147.75 1061.95 133.575 1061.95 109.6C1061.95 85.1 1048.13 70.75 1024.68 70.75ZM1139.95 44.5V174H1111.6V44.5H1139.95ZM1225.25 69C1201.8 69 1189.73 85.45 1189.73 110.475C1189.73 136.55 1204.43 149.5 1225.08 149.5C1246.43 149.5 1255.88 137.95 1257.1 124.475H1222.8V99.625H1283.7V174H1259.38L1257.8 162.275C1250.8 170.5 1236.8 175.925 1221.4 175.925C1185.18 175.925 1159.8 149.325 1159.8 109.6C1159.8 70.575 1185.88 42.4 1225.95 42.4C1256.93 42.4 1280.73 60.6 1283.7 88.6H1253.95C1250.63 74.95 1238.73 69 1225.25 69ZM1335.46 44.5V174H1307.11V44.5H1335.46ZM1352.51 70.75V44.5H1454.36V70.75H1417.61V174H1389.26V70.75H1352.51ZM1477.57 174H1448L1494.2 44.5H1521.85L1567.87 174H1537.77L1528.67 146.7H1486.85L1477.57 174ZM1504.35 95.25L1495.07 122.9H1520.62L1511.35 95.25C1509.95 90.875 1508.37 85.8 1507.85 82.65C1507.32 85.625 1505.92 90.525 1504.35 95.25ZM1611.29 44.5V147.75H1662.39V174H1582.94V44.5H1611.29Z" fill="white"/>
<path d="M801.097 137.584C798.378 129.844 796.992 121.685 797 113.467C797 73.7702 828.816 41.542 868 41.542C907.184 41.542 939 73.7702 939 113.467C939.017 126.012 935.779 138.34 929.613 149.211C925.852 152.448 920.822 156.466 917.405 157.988C912.334 160.243 900.977 160.479 900.977 160.479C900.977 160.479 909.068 164.437 912.676 165.924C896.763 165.633 880.315 162.386 870.087 146.575C870.168 152.675 870.68 156.673 873.62 161.542C875.849 165.481 878.743 168.99 882.171 171.909C884.81 174.17 888.826 176.486 892.766 178.738C886.657 177.066 878.574 172.5 868.026 161.707C855.66 149.055 855.898 130.835 858.411 116.498C859.562 109.915 865.562 101.928 867.217 100.211C878.187 88.8195 883.764 88.2187 890.554 87.2577C894.735 86.665 906.034 87.5735 910.657 90.8146C908.869 86.5843 907.894 83.4612 903.686 79.183C900.328 75.6689 896.404 72.7622 892.084 70.5877C872.443 61.104 846.336 66.2933 830.525 78.0626C814.85 89.729 803.479 116.998 801.097 137.584ZM885.432 137.188C885.691 137.015 886.25 137.251 886.347 137.282C886.94 137.477 887.502 137.756 888.094 137.947C889.465 138.39 890.84 138.841 892.236 139.184C895.722 140.038 897.153 140.31 900.562 140.184C904.362 140.006 908.118 139.29 911.724 138.059C916.681 136.473 922.452 134.377 925.837 130.018C922.864 133.835 919.796 138 915.685 140.659C913.098 142.331 909.003 143.691 906.116 144.406C900.581 145.777 896.598 145.855 891.557 142.87C887.494 140.46 883.611 137.74 879.658 135.149C875.685 132.545 873.003 130.178 868.273 132.327C872.748 130.958 876.17 135.161 879.274 137.573C882.576 140.142 885.855 142.752 889.294 145.135C896.384 150.054 906.779 147.525 913.897 144.526C924.055 140.246 929.724 129.392 933.159 119.428C934.223 116.43 934.844 113.289 935.001 110.106C934.989 109.27 934.911 108.436 934.767 107.613C932.258 108.773 928.294 110.466 925.591 111.139C919.641 112.622 913.516 113.185 907.736 115.347C900.212 118.161 893.728 123.822 889.185 130.463C887.729 132.579 886.473 134.83 885.433 137.187C885.386 137.22 885.349 137.266 885.325 137.319C885.302 137.373 885.293 137.431 885.299 137.489L885.432 137.188ZM866.837 146.485C866.837 146.485 863.817 139.288 863.294 136.343C862.59 132.369 863.84 125.072 867.655 123.07C869.997 121.84 872.732 121.697 875.416 121.169C882.564 119.761 887.958 117.318 893.588 113.783C898.948 110.417 903.174 106.797 905.941 100.984C906.762 99.2565 907.841 97.5419 908.653 95.8384C909.056 94.9904 909.81 93.2687 909.81 93.2687C908.754 93.7925 907.652 94.2126 906.517 94.5233C903.961 94.9919 901.196 94.9985 898.584 95.0343C888.96 95.1644 884.893 93.3076 875.55 100.554C872.745 102.73 869.322 105.469 866.999 108.69C865.908 110.228 865.031 111.909 864.39 113.689C863.645 115.786 862.868 120.445 862.868 120.445C862.868 120.445 866.276 116.286 866.968 115.701C870.789 112.401 875.607 110.529 880.62 110.397C881.663 110.382 885.004 110.308 887.667 110.044C889.534 109.863 891.382 109.512 893.187 108.994C891.51 110.742 888.075 113.227 885.805 114.03C884.13 114.623 882.183 115.007 880.403 115.485C875.566 116.783 870.565 116.762 865.714 120.687C860.918 124.563 858.654 132.38 861.753 138.468C862.306 139.554 866.837 146.485 866.837 146.485V146.485ZM869.402 77.5612C863.48 70.004 846.793 73.4716 832.159 85.2999C817.525 97.1283 810.455 112.867 816.38 120.424C814.149 112.97 821.659 99.3806 834.844 88.7231C848.028 78.0656 862.751 73.6789 869.402 77.5612Z" fill="white"/>
</svg>
