<svg width="38" height="38" viewBox="0 0 38 38" fill="none" xmlns="http://www.w3.org/2000/svg">
<g clip-path="url(#clip0_76_292)">
<path d="M18.994 38.0001C29.0713 38.0001 37.2406 29.6882 37.2406 19.4349C37.2406 9.1817 29.0713 0.869812 18.994 0.869812C8.91675 0.869812 0.747498 9.1817 0.747498 19.4349C0.747498 29.6882 8.91675 38.0001 18.994 38.0001Z" fill="black"/>
<path d="M1.09619 25.4215C0.368567 23.3727 -0.00235194 21.2133 -0.000296681 19.038C-0.000296681 8.53074 8.5138 0.000305176 18.9997 0.000305176C29.4856 0.000305176 37.9997 8.53074 37.9997 19.038C38.0042 22.3585 37.1378 25.6217 35.4877 28.4989C34.4812 29.3558 33.1353 30.4192 32.2207 30.8222C30.8637 31.4192 27.8245 31.4815 27.8245 31.4815C27.8245 31.4815 29.9899 32.5291 30.9553 32.9226C26.6968 32.8458 22.2953 31.9864 19.5583 27.8014C19.5799 29.4158 19.7169 30.4742 20.5037 31.763C21.1001 32.8055 21.8746 33.7343 22.7918 34.5068C23.4982 35.1053 24.5728 35.7183 25.6272 36.3143C23.9924 35.8718 21.8295 34.6633 19.0068 31.8065C15.6973 28.4576 15.7613 23.635 16.4335 19.8402C16.7417 18.0977 18.3474 15.9836 18.7901 15.5294C21.7259 12.5141 23.2183 12.3551 25.0353 12.1007C26.1542 11.9438 29.1778 12.1843 30.4149 13.0422C29.9364 11.9225 29.6757 11.0958 28.5495 9.96343C27.6509 9.0333 26.6009 8.26391 25.4448 7.68835C20.1888 5.17814 13.2023 6.55168 8.97127 9.66687C4.77643 12.7548 1.73349 19.9726 1.09619 25.4215ZM23.6647 25.3165C23.7339 25.2709 23.8836 25.3334 23.9096 25.3417C24.0682 25.3931 24.2185 25.4669 24.377 25.5176C24.744 25.6347 25.1117 25.7541 25.4855 25.8449C26.4182 26.0709 26.8013 26.1429 27.7134 26.1097C28.7303 26.0624 29.7357 25.8731 30.7005 25.5473C32.027 25.1275 33.5714 24.5726 34.4774 23.4189C33.6817 24.4292 32.8606 25.5315 31.7605 26.2353C31.0682 26.6779 29.9725 27.038 29.1999 27.2272C27.7186 27.59 26.6527 27.6106 25.3038 26.8205C24.2164 26.1828 23.1773 25.4629 22.1195 24.7768C21.0562 24.0877 20.3385 23.4611 19.0728 24.0299C20.2704 23.6677 21.186 24.7801 22.0167 25.4186C22.9003 26.0986 23.7779 26.7893 24.698 27.42C26.5954 28.722 29.3772 28.0528 31.282 27.2589C34.0004 26.1261 35.5174 23.2532 36.4367 20.6158C36.7215 19.8223 36.8876 18.9908 36.9295 18.1484C36.9264 17.9271 36.9055 17.7064 36.8671 17.4884C36.1956 17.7955 35.1349 18.2436 34.4113 18.4219C32.8191 18.8143 31.1801 18.9634 29.6333 19.5356C27.6197 20.2804 25.8846 21.7788 24.669 23.5366C24.2794 24.0968 23.9432 24.6926 23.6649 25.3163C23.6523 25.3252 23.6424 25.3373 23.6361 25.3514C23.6298 25.3655 23.6274 25.381 23.6292 25.3964L23.6647 25.3165ZM18.6886 27.7775C18.6886 27.7775 17.8802 25.8725 17.7403 25.093C17.5519 24.0412 17.8865 22.1096 18.9075 21.5797C19.5341 21.2543 20.2659 21.2165 20.9843 21.0766C22.8972 20.7039 24.3406 20.0573 25.8473 19.1215C27.2816 18.2307 28.4124 17.2725 29.153 15.7338C29.3726 15.2767 29.6613 14.8228 29.8788 14.3719C29.9867 14.1475 30.1884 13.6917 30.1884 13.6917C29.9059 13.8304 29.6108 13.9416 29.3071 14.0238C28.6231 14.1479 27.8831 14.1496 27.1842 14.1591C24.6087 14.1935 23.5204 13.702 21.02 15.6201C20.2696 16.1959 19.3534 16.9211 18.7318 17.7736C18.44 18.1806 18.2051 18.6257 18.0336 19.0967C17.8342 19.6518 17.6265 20.8851 17.6265 20.8851C17.6265 20.8851 18.5384 19.7841 18.7237 19.6292C19.7462 18.7559 21.0354 18.2605 22.377 18.2253C22.6561 18.2215 23.5501 18.2018 24.2626 18.1319C24.7624 18.084 25.2568 17.9911 25.74 17.8542C25.2912 18.3167 24.3719 18.9745 23.7645 19.1871C23.3163 19.344 22.7953 19.4457 22.319 19.572C21.0244 19.9157 19.686 19.9103 18.3879 20.9491C17.1046 21.9749 16.4988 24.0441 17.328 25.6554C17.4761 25.943 18.6886 27.7773 18.6886 27.7773V27.7775ZM19.3749 9.53415C17.7901 7.53386 13.3247 8.45169 9.40853 11.5825C5.49239 14.7133 3.60045 18.8792 5.18578 20.8795C4.58876 18.9066 6.59859 15.3095 10.1269 12.4886C13.6552 9.66767 17.5951 8.50657 19.3749 9.53415Z" fill="white"/>
</g>
<defs>
<clipPath id="clip0_76_292">
<rect width="38" height="38" fill="white"/>
</clipPath>
</defs>
</svg>
