<svg xmlns="http://www.w3.org/2000/svg" version="1.1" xmlns:xlink="http://www.w3.org/1999/xlink" xmlns:svgjs="http://svgjs.com/svgjs" width="1000" height="1000"><rect width="1000" height="1000" rx="500" ry="500" fill="#000000"></rect><g transform="matrix(2.0985478049189963,0,0,2.0985478049189963,200.00098234170963,201.37816364531113)"><svg xmlns="http://www.w3.org/2000/svg" version="1.1" xmlns:xlink="http://www.w3.org/1999/xlink" xmlns:svgjs="http://svgjs.com/svgjs" width="285.912" height="284.598"><svg xmlns="http://www.w3.org/2000/svg" width="285.912" height="284.598" viewBox="0 0 285.912 284.598">
  <g id="Group_12" data-name="Group 12" transform="translate(-269.935 -142.473)">
    <g id="Layer2" transform="translate(269.935 142.473)">
      <g id="Group_9" data-name="Group 9" transform="translate(5.624 6.514)">
        <ellipse id="Ellipse_8" data-name="Ellipse 8" cx="137.287" cy="139.042" rx="137.287" ry="139.042" transform="translate(0 0)"></ellipse>
      </g>
      <g id="Group_10" data-name="Group 10">
        <path id="Path_38" data-name="Path 38" d="M1108.48,519.175a141.872,141.872,0,0,1-8.25-47.809c0-78.693,64.06-142.581,142.956-142.581s142.956,63.888,142.956,142.581a141.557,141.557,0,0,1-18.9,70.857c-7.573,6.418-17.7,14.382-24.581,17.4-10.21,4.471-33.077,4.938-33.077,4.938s16.292,7.846,23.556,10.793c-32.041-.575-65.158-7.012-85.751-38.355.162,12.091,1.193,20.018,7.113,29.67a76.668,76.668,0,0,0,17.216,20.55c5.315,4.482,13.4,9.073,21.333,13.537-12.3-3.314-28.574-12.365-49.812-33.761-24.9-25.081-24.419-61.2-19.361-89.621,2.319-13.05,14.4-28.883,17.731-32.285,22.089-22.583,33.318-23.774,46.989-25.679,8.418-1.175,31.168.626,40.476,7.051-3.6-8.386-5.562-14.577-14.035-23.058a85.4,85.4,0,0,0-23.36-17.039c-39.546-18.8-92.113-8.513-123.947,14.818C1136.17,424.309,1113.275,478.366,1108.48,519.175Zm169.805-.786c.521-.342,1.647.126,1.843.188,1.193.385,2.324.938,3.517,1.318,2.761.877,5.528,1.771,8.34,2.451,7.018,1.693,9.9,2.232,16.763,1.983a82.486,82.486,0,0,0,22.475-4.212c9.98-3.144,21.6-7.3,28.417-15.94-5.987,7.566-12.165,15.822-20.442,21.093-5.209,3.315-13.453,6.012-19.266,7.429-11.145,2.717-19.165,2.871-29.314-3.046-8.182-4.776-16-10.168-23.959-15.306-8-5.161-13.4-9.854-22.923-5.594,9.011-2.713,15.9,5.618,22.15,10.4,6.648,5.093,13.251,10.266,20.174,14.99,14.276,9.751,35.206,4.739,49.538-1.207,20.453-8.484,31.867-30,38.784-49.753a63.9,63.9,0,0,0,3.708-18.479,30.886,30.886,0,0,0-.47-4.943c-5.052,2.3-13.033,5.656-18.477,6.991-11.98,2.939-24.312,4.056-35.95,8.341-15.15,5.578-28.205,16.8-37.351,29.965a81.367,81.367,0,0,0-7.555,13.329.644.644,0,0,0-.269.6Zm-37.44,18.431s-6.082-14.267-7.135-20.105c-1.417-7.878,1.1-22.344,8.782-26.313,4.715-2.437,10.221-2.72,15.626-3.768,14.393-2.791,25.253-7.634,36.589-14.642,10.792-6.672,19.3-13.848,24.872-25.372,1.653-3.424,3.825-6.823,5.461-10.2.812-1.681,2.33-5.094,2.33-5.094a37.138,37.138,0,0,1-6.631,2.487c-5.147.929-10.714.942-15.973,1.013-19.378.258-27.566-3.423-46.379,10.942-5.646,4.313-12.54,9.744-17.217,16.129a41.125,41.125,0,0,0-5.253,9.909c-1.5,4.157-3.063,13.394-3.063,13.394s6.861-8.246,8.255-9.406a44.216,44.216,0,0,1,27.488-10.514c2.1-.029,8.826-.176,14.187-.7A62.972,62.972,0,0,0,1293.9,462.5c-3.377,3.464-10.294,8.391-14.864,9.983-3.372,1.175-7.292,1.937-10.876,2.883-9.74,2.574-19.81,2.533-29.577,10.313-9.656,7.683-14.214,23.18-7.975,35.248C1231.722,523.081,1240.845,536.819,1240.845,536.819Zm5.164-136.632c-11.924-14.981-45.522-8.107-74.987,15.341s-43.7,54.648-31.772,69.629c-4.492-14.776,10.63-41.716,37.177-62.843S1232.618,392.491,1246.009,400.187Z" transform="translate(-1100.231 -328.784)" fill="#fff"></path>
      </g>
    </g>
  </g>
</svg></svg></g></svg>